<?xml version="1.0" standalone="no"?><!DOCTYPE svg PUBLIC "-//W3C//DTD SVG 1.1//EN" "http://www.w3.org/Graphics/SVG/1.1/DTD/svg11.dtd"><svg t="1561029314546" class="icon" viewBox="0 0 1024 1024" version="1.1" xmlns="http://www.w3.org/2000/svg" p-id="37553" xmlns:xlink="http://www.w3.org/1999/xlink" width="200" height="200"><defs><style type="text/css"></style></defs><path d="M80 152v544a32 32 0 0 0 32 32H352v-608H112a32 32 0 0 0-32 32z m54.016 144.32c17.024-22.688 44.352-34.048 81.984-34.048 29.856 0 53.536 7.68 71.008 23.072 17.472 15.36 26.208 35.328 26.208 59.808 0 18.528-4.48 33.76-13.44 45.696-7.168 9.568-16.128 16-26.88 19.296 16.704 5.984 29.28 14.304 37.632 25.056 9.856 12.576 14.784 28.992 14.784 49.28 0 28.416-8.8 51.68-26.432 69.92-20.32 20.896-49.28 31.328-86.912 31.328-9.856 0-18.08-0.608-24.64-1.792a126.528 126.528 0 0 1-33.6-12.096c-16.704-8.672-28.736-20.896-36.064-36.736-7.328-15.808-10.976-33.888-10.976-54.176h40.768c0 19.712 3.744 34.944 11.2 45.696 10.752 15.84 29.408 23.744 56 23.744 20.288 0 36.8-5.6 49.504-16.8 12.672-11.2 19.04-25.92 19.04-44.128 0-23.296-8.8-39.552-26.432-48.8-11.36-6.016-27.04-8.96-47.04-8.96h-17.92v-33.6l20.608 0.864c17.344 0 31.072-3.552 41.216-10.752 12.544-8.96 18.816-22.528 18.816-40.736 0-12.576-3.744-23.168-11.2-31.808-10.144-11.936-25.856-17.952-47.04-17.952-24.192 0-41.376 8.544-51.52 25.536-6.592 11.072-9.856 25.088-9.856 42.112H114.304c0-28.416 6.56-51.392 19.712-69.024z m241.984 431.68h272v-608h-272v608z m182.112-303.328c-13.12-12.256-29.856-18.368-50.144-18.368-23.584 0-43.04 10.016-58.24 30.016l-34.048-1.824 23.744-168.864h163.072v38.496h-133.664l-13.536 86.432c8.064-6.24 16.32-10.88 24.672-13.856a106.816 106.816 0 0 1 36.352-5.824c27.488 0 51.104 8.672 70.848 25.984 21.824 19.136 32.736 44.064 32.736 74.816 0 26.016-6.688 48.672-20.128 68.096-19.744 28.384-51.104 42.528-94.08 42.528-25.088 0-46.144-5.632-63.168-16.992-22.08-14.944-34.944-38.208-38.528-69.888H444.8c2.08 17.632 9.248 31.072 21.472 40.32 11.36 8.384 26.432 12.576 45.248 12.576 20.032 0 36.064-6.88 48.16-20.64 12.128-13.76 18.112-30.944 18.112-51.488 0.032-22.112-6.528-39.264-19.68-51.52z m294.88 123.04c9.888 11.968 14.816 27.648 14.816 47.072 0 27.456-7.616 47.328-22.88 59.552-10.112 8.064-22.688 12.096-37.632 12.096-17.632 0-31.616-3.872-42.112-11.616-14.624-11.072-21.952-29.888-21.952-56.48 0-21.504 5.504-38.656 16.576-51.488s25.888-19.296 44.384-19.296c21.504 0 37.76 6.72 48.8 20.16zM768.384 164c10.752 8.8 23.68 13.216 38.944 13.216 16.736 0 30.24-4.704 40.576-14.112s15.424-21.568 15.424-36.512c0-2.368-0.832-4.384-1.152-6.624h-108.672c-0.416 2.944-1.28 5.632-1.28 8.864-0.032 14.656 5.344 26.4 16.16 35.168zM912 120h-8.416c0.096 1.792 0.48 3.424 0.48 5.28 0 20-4.864 35.84-14.752 47.488-5.376 6.592-13.888 12.864-25.568 18.816 19.136 8.064 32.992 20 41.696 35.84 6.56 12.256 9.888 25.856 9.888 40.768 0 27.776-8.384 50.624-25.12 68.544-19.136 20.608-46.304 30.912-81.504 30.912-12 0-23.616-1.504-34.944-4.48a109.952 109.952 0 0 1-40.8-19.712 79.776 79.776 0 0 1-28.192-41.216c-2.688-8.96-4.064-20.16-4.064-33.6 0-18.816 4.576-34.496 13.696-47.04 9.056-12.544 22.304-22.4 39.616-29.568-28.384-10.752-42.56-31.2-42.56-61.376 0-3.68 0.448-7.136 0.8-10.656H672v608h188.928c5.792-16.864 10.432-37.504 13.568-62.912v-0.864c-5.376 11.328-15.008 20.48-28.8 27.328a96.768 96.768 0 0 1-43.68 10.304c-29.44 0-53.376-9.184-71.808-27.552-18.496-18.336-27.68-43.072-27.68-74.112 0-30.144 8.512-55.264 25.504-75.296 18.816-21.792 44.064-32.672 75.744-32.672 43.872 0 74.816 17.92 92.736 53.76 11.616 23.328 17.44 54.048 17.44 92.288 0 21.216-1.824 41.536-5.376 60.928-1.92 10.368-4.416 19.808-7.2 28.832h10.624a32 32 0 0 0 32-32v-544a32 32 0 0 0-32-32.032z m-156.192 190.304c11.616 14.656 29.696 21.952 54.176 21.952 17.632 0 31.68-3.744 42.112-11.2 14.016-10.144 21.056-26.272 21.056-48.384 0-20.288-6.112-35.616-18.368-45.92-12.256-10.304-27.936-15.456-47.072-15.456-20.864 0-36.928 5.76-48.128 17.248s-16.8 25.184-16.8 40.992c0.032 16.128 4.352 29.728 13.024 40.768z" fill="#4F4F4F" p-id="37554"></path><path d="M992 728a48 48 0 0 1-48 48h-864a48 48 0 0 1-48-48v-608a48 48 0 0 1 48-48h864a48 48 0 0 1 48 48v608z m-48-576a32 32 0 0 0-32-32h-800a32 32 0 0 0-32 32v544a32 32 0 0 0 32 32h800a32 32 0 0 0 32-32v-544z m-52.864 656l-83.136 144-83.136-144h166.272z m-110.848 31.488l27.712 48 27.712-48h-55.424z" fill="#2244AA" p-id="37555"></path></svg>